<?xml version="1.0" encoding="utf-8"?>
<!-- Generator: Adobe Illustrator 24.0.2, SVG Export Plug-In . SVG Version: 6.00 Build 0)  -->
<svg version="1.1" id="Capa_1" xmlns="http://www.w3.org/2000/svg" xmlns:xlink="http://www.w3.org/1999/xlink" x="0px" y="0px"
	 viewBox="0 0 595.3 841.9" style="enable-background:new 0 0 595.3 841.9;" xml:space="preserve">
<style type="text/css">
	.st0{fill:url(#SVGID_1_);}
	.st1{fill:url(#SVGID_2_);}
	.st2{fill:url(#SVGID_3_);}
	.st3{fill:url(#SVGID_4_);}
</style>
<g>
	<linearGradient id="SVGID_1_" gradientUnits="userSpaceOnUse" x1="-11.0136" y1="561.4678" x2="412.9438" y2="310.5045">
		<stop  offset="0" style="stop-color:#5E2483"/>
		<stop  offset="0.5804" style="stop-color:#0065B1"/>
		<stop  offset="1" style="stop-color:#49AD33"/>
	</linearGradient>
	<path class="st0" d="M253.9,457.2c-13.4-30.2-25.1-60.4-37.8-90.2c-2.4-5.7-4.6-11.5-8.6-16.4c-4.6-5.7-9.6-5.8-14.4-0.3
		c-3.6,4.1-6,8.9-8.1,13.8c-23.7,55.7-47.3,111.4-71,167.1c-7.6,18-15.4,35.9-23.1,53.8c-0.5,1.2-1.5,2.4-1.3,4.2
		c12.7-0.8,22.9-6.1,31.3-15c8.5-9,13-20,17.6-31.1c21.4-51.4,42.5-103,64.6-154.2c0.2-0.4,0.4-0.7,1-1.7c1.9,4.2,3.7,8.1,5.4,11.9
		c3.9,8.9,7.6,17.8,11.5,26.7c0.8,1.8,0.7,3.3,0,5.1c-7.8,18.6-15.6,37.3-23.3,56c-2.4,5.9-2.3,6.1,4,6
		c32.8-0.2,58.5-14.3,78.8-38.5c10-11.9,17.4-25.3,26.1-38.1c11.4-16.7,24.7-31.7,43-41.9c17-9.4,35.2-13.6,55.4-13.1
		c-3.9,9-8,17.5-11.3,26.2c-1.5,4.1-3.9,5.7-8.1,6.5c-14.2,2.8-25.8,10.4-35.7,20.3c-10.7,10.8-18.6,23.5-26.5,36.2
		c-11.2,18.1-24.4,34.7-41.9,47.6c-25.7,19-55.1,26.1-87.1,25c-3.9-0.1-8.5-1.9-11.3,0.1c-2.6,1.9-3.1,6.4-4.6,9.7
		c-6.4,14.6-11.4,29.9-19.3,43.9c-16.2,28.6-41.3,42.8-74.8,43.2c-13.9,0.2-27.8,0-41.6,0.1c-2.9,0-3.9-0.2-2.5-3.3
		c33.9-75.5,65.1-152,98-227.9c7.7-17.8,14.1-36.1,24.3-52.8c8.5-13.8,20.1-23.5,37.9-23.4c13.4,0.1,23.6,6.5,31.9,16.1
		c5.7,6.6,9.6,14.3,12.9,22.2c10.4,24.8,20.6,49.8,31,74.7c1.1,2.5,0.8,4.3-1,6.4c-5.4,6.4-10.5,13-15.9,19.4
		C257.9,453.6,256,455.2,253.9,457.2z"/>
	<linearGradient id="SVGID_2_" gradientUnits="userSpaceOnUse" x1="44.9249" y1="655.9659" x2="468.8823" y2="405.0026">
		<stop  offset="0" style="stop-color:#5E2483"/>
		<stop  offset="0.5804" style="stop-color:#0065B1"/>
		<stop  offset="1" style="stop-color:#49AD33"/>
	</linearGradient>
	<path class="st1" d="M394,498.4c-6.1-13.8-11.7-26.5-17.3-39.2c-1-2.2,0.1-3.8,0.8-5.6c12.6-30,25.2-60.1,37.7-90.1
		c7.7-18.4,14.7-37.1,23.5-55c10.7-21.6,27-37.1,51.6-43.2c5.8-1.4,11.6-2.2,17.6-2.2c16.9,0,33.8,0,51.3,0
		c-3.4,8-6.6,15.6-9.8,23.2c-18.2,43.6-36.4,87.3-54.7,130.9c-15.8,37.5-31.6,75-47.8,112.4c-5.1,11.7-11.1,23.1-21.7,31.4
		c-14.2,11.2-33.5,12.2-48.9,2.6c-12.8-8-20.5-19.9-26.3-33.1c-7.3-16.4-13.9-33.1-21-49.6c-1.2-2.8-0.9-4.8,0.8-7.3
		c5.3-7.8,10.2-15.9,15.3-23.8c1.2-1.9,2.6-3.6,4.2-5.9c7.8,18.1,15.4,35.6,22.9,53.1c3.7,8.6,7.3,17.3,11,26c2,4.6,5,8.5,8.8,11.8
		c4.5,3.8,9.1,3.8,13.5-0.3c6.7-6.2,9.7-14.5,13.1-22.5c11.1-26.1,22-52.3,33-78.4c18.9-45,37.8-90.1,56.7-135.1
		c0.8-1.8,1.4-3.6,2.2-5.9c-8.5-0.3-15.6,2.4-22.3,6.4c-9.5,5.8-16.1,14.2-20.3,24c-13.9,32.4-27.2,65-40.9,97.5
		C416.4,446.2,405.4,471.7,394,498.4z"/>
	<linearGradient id="SVGID_3_" gradientUnits="userSpaceOnUse" x1="-42.0399" y1="509.0544" x2="381.9175" y2="258.0911">
		<stop  offset="0" style="stop-color:#5E2483"/>
		<stop  offset="0.5804" style="stop-color:#0065B1"/>
		<stop  offset="1" style="stop-color:#49AD33"/>
	</linearGradient>
	<path class="st2" d="M295.3,402.3c-5.2-12-10.1-23.4-15.1-34.9c-7.3-16.7-13.4-33.9-22-50c-10.6-19.8-27.7-30.2-50.9-30.4
		c-8.4-0.1-16.6,1.9-24.9,6.5c5.6-10.7,13-18.5,23.1-23.9c22-11.7,49.3-6.9,67.3,11.6c9.8,10.1,16.3,21.9,21.5,34.6
		c7.6,18.6,15.2,37.1,22.8,55.7c0.5,1.3,1.8,2.6,0.3,4.2C309.6,384,302.7,392.9,295.3,402.3z"/>
	<linearGradient id="SVGID_4_" gradientUnits="userSpaceOnUse" x1="80.3707" y1="715.8452" x2="504.3281" y2="464.8819">
		<stop  offset="0" style="stop-color:#5E2483"/>
		<stop  offset="0.5804" style="stop-color:#0065B1"/>
		<stop  offset="1" style="stop-color:#49AD33"/>
	</linearGradient>
	<path class="st3" d="M418.4,587.8c-14.4,31.5-53.1,42-82.8,23.5c-13.9-8.7-23.9-20.6-31-34.8c-8.9-17.9-15.3-36.8-22.8-55.2
		c-0.6-1.4-0.9-2.4,0.8-3.5c7.9-5,14.7-11.3,21.4-17.7c2.4-2.3,3.4-2.4,4.8,1c6.9,17,14,34,21.1,51c5.7,13.6,13.1,25.9,26.4,33.9
		c19.4,11.7,39.4,13.5,60,2.8C416.7,588.5,417.2,588.4,418.4,587.8z"/>
</g>
</svg>
