<?xml version="1.0" encoding="utf-8"?>
<!-- Generator: Adobe Illustrator 24.0.2, SVG Export Plug-In . SVG Version: 6.00 Build 0)  -->
<svg version="1.1" id="Capa_1" xmlns="http://www.w3.org/2000/svg" xmlns:xlink="http://www.w3.org/1999/xlink" x="0px" y="0px"
	 viewBox="0 0 595.3 481.9" style="enable-background:new 0 0 595.3 481.9;" xml:space="preserve">
<style type="text/css">
	.st0{fill:url(#SVGID_1_);}
	.st1{fill:url(#SVGID_2_);}
	.st2{fill:url(#SVGID_3_);}
	.st3{fill:url(#SVGID_4_);}
	.st4{fill:#494D53;}
</style>
<g>
	
		<linearGradient id="SVGID_1_" gradientUnits="userSpaceOnUse" x1="21.5842" y1="186.7359" x2="398.4649" y2="409.8319" gradientTransform="matrix(1 0 0 -1 0 481.8795)">
		<stop  offset="0" style="stop-color:#5E2483"/>
		<stop  offset="0.5804" style="stop-color:#0065B1"/>
		<stop  offset="1" style="stop-color:#49AD33"/>
	</linearGradient>
	<path class="st0" d="M257.2,202.6c-11.9-26.8-22.3-53.7-33.6-80.2c-2.1-5.1-4.1-10.2-7.6-14.6c-4.1-5.1-8.5-5.2-12.8-0.3
		c-3.2,3.6-5.3,7.9-7.2,12.3c-21.1,49.5-42,99-63.1,148.5c-6.8,16-13.7,31.9-20.5,47.8c-0.4,1.1-1.3,2.1-1.2,3.7
		c11.3-0.7,20.4-5.4,27.8-13.3c7.6-8,11.6-17.8,15.6-27.6c19-45.7,37.8-91.6,57.4-137.1c0.2-0.4,0.4-0.6,0.9-1.5
		c1.7,3.7,3.3,7.2,4.8,10.6c3.5,7.9,6.8,15.8,10.2,23.7c0.7,1.6,0.6,2.9,0,4.5c-6.9,16.5-13.9,33.2-20.7,49.8
		c-2.1,5.2-2,5.4,3.6,5.3c29.2-0.2,52-12.7,70-34.2c8.9-10.6,15.5-22.5,23.2-33.9c10.1-14.8,22-28.2,38.2-37.2
		c15.1-8.4,31.3-12.1,49.2-11.6c-3.5,8-7.1,15.6-10,23.3c-1.3,3.6-3.5,5.1-7.2,5.8c-12.6,2.5-22.9,9.2-31.7,18
		c-9.5,9.6-16.5,20.9-23.6,32.2c-10,16.1-21.7,30.8-37.2,42.3c-22.8,16.9-49,23.2-77.4,22.2c-3.5-0.1-7.6-1.7-10,0.1
		c-2.3,1.7-2.8,5.7-4.1,8.6c-5.7,13-10.1,26.6-17.2,39c-14.4,25.4-36.7,38-66.5,38.4c-12.4,0.2-24.7,0-37,0.1
		c-2.6,0-3.5-0.2-2.2-2.9c30.1-67.1,57.9-135.1,87.1-202.6c6.8-15.8,12.5-32.1,21.6-46.9c7.6-12.3,17.9-20.9,33.7-20.8
		c11.9,0.1,21,5.8,28.4,14.3c5.1,5.9,8.5,12.7,11.5,19.7c9.2,22,18.3,44.3,27.6,66.4c1,2.2,0.7,3.8-0.9,5.7
		c-4.8,5.7-9.3,11.6-14.1,17.2C260.7,199.4,259,200.8,257.2,202.6z"/>
	
		<linearGradient id="SVGID_2_" gradientUnits="userSpaceOnUse" x1="71.3356" y1="102.6898" x2="448.2163" y2="325.7858" gradientTransform="matrix(1 0 0 -1 0 481.8795)">
		<stop  offset="0" style="stop-color:#5E2483"/>
		<stop  offset="0.5804" style="stop-color:#0065B1"/>
		<stop  offset="1" style="stop-color:#49AD33"/>
	</linearGradient>
	<path class="st1" d="M381.7,239.2c-5.4-12.3-10.4-23.6-15.4-34.8c-0.9-2,0.1-3.4,0.7-5c11.2-26.7,22.4-53.4,33.5-80.1
		c6.8-16.4,13.1-33,20.9-48.9c9.5-19.2,24-33,45.9-38.4c5.2-1.2,10.3-2,15.6-2c15,0,30,0,45.6,0c-3,7.1-5.9,13.9-8.7,20.6
		c-16.2,38.8-32.4,77.6-48.6,116.4c-14,33.3-28.1,66.7-42.5,99.9c-4.5,10.4-9.9,20.5-19.3,27.9c-12.6,10-29.8,10.8-43.5,2.3
		c-11.4-7.1-18.2-17.7-23.4-29.4c-6.5-14.6-12.4-29.4-18.7-44.1c-1.1-2.5-0.8-4.3,0.7-6.5c4.7-6.9,9.1-14.1,13.6-21.2
		c1.1-1.7,2.3-3.2,3.7-5.2c6.9,16.1,13.7,31.6,20.4,47.2c3.3,7.6,6.5,15.4,9.8,23.1c1.8,4.1,4.4,7.6,7.8,10.5c4,3.4,8.1,3.4,12-0.3
		c6-5.5,8.6-12.9,11.6-20c9.9-23.2,19.6-46.5,29.3-69.7c16.8-40,33.6-80.1,50.4-120.1c0.7-1.6,1.2-3.2,2-5.2
		c-7.6-0.3-13.9,2.1-19.8,5.7c-8.4,5.2-14.3,12.6-18,21.3C435,112.1,423.2,141.1,411,170C401.6,192.8,391.8,215.5,381.7,239.2z"/>
	
		<linearGradient id="SVGID_3_" gradientUnits="userSpaceOnUse" x1="-5.9188" y1="233.1974" x2="370.9619" y2="456.2935" gradientTransform="matrix(1 0 0 -1 0 481.8795)">
		<stop  offset="0" style="stop-color:#5E2483"/>
		<stop  offset="0.5804" style="stop-color:#0065B1"/>
		<stop  offset="1" style="stop-color:#49AD33"/>
	</linearGradient>
	<path class="st2" d="M294,153.8c-4.6-10.7-9-20.8-13.4-31c-6.5-14.8-11.9-30.1-19.6-44.4c-9.4-17.6-24.6-26.8-45.2-27
		c-7.5-0.1-14.8,1.7-22.1,5.8c5-9.5,11.6-16.4,20.5-21.2c19.6-10.4,43.8-6.1,59.8,10.3c8.7,9,14.5,19.5,19.1,30.8
		c6.8,16.5,13.5,33,20.3,49.5c0.4,1.2,1.6,2.3,0.3,3.7C306.7,137.5,300.6,145.4,294,153.8z"/>
	
		<linearGradient id="SVGID_4_" gradientUnits="userSpaceOnUse" x1="102.8982" y1="49.3704" x2="479.779" y2="272.4665" gradientTransform="matrix(1 0 0 -1 0 481.8795)">
		<stop  offset="0" style="stop-color:#5E2483"/>
		<stop  offset="0.5804" style="stop-color:#0065B1"/>
		<stop  offset="1" style="stop-color:#49AD33"/>
	</linearGradient>
	<path class="st3" d="M403.4,318.7c-12.8,28-47.2,37.3-73.6,20.9c-12.4-7.7-21.2-18.3-27.6-30.9c-7.9-15.9-13.6-32.7-20.3-49.1
		c-0.5-1.2-0.8-2.1,0.7-3.1c7-4.4,13.1-10,19-15.7c2.1-2,3-2.1,4.3,0.9c6.1,15.1,12.4,30.2,18.8,45.3c5.1,12.1,11.6,23,23.5,30.1
		c17.2,10.4,35,12,53.3,2.5C401.9,319.3,402.3,319.2,403.4,318.7z"/>
</g>
<g>
	<path class="st4" d="M152,457.6c-6.3,0-12.2-0.1-18.2,0.1c-1.8,0-2.5-0.8-3.1-2.3c-1.4-4.1-3-8.2-4.5-12.3
		c-0.6-1.6-1.3-2.2-3.1-2.2c-9.2,0.1-18.3,0.1-27.5,0c-1.9,0-2.5,0.8-3,2.3c-1.4,4.1-3,8.2-4.5,12.3c-0.5,1.3-1,2.2-2.8,2.2
		c-6.1-0.1-12.1,0-18.6,0c4.4-10.8,8.6-21.2,12.8-31.6c6.6-16.3,13.2-32.6,19.7-48.9c0.9-2.3,1.9-3.4,4.5-3.2
		c4.8,0.3,10.4-1.4,14,0.7c3.6,2.1,4.1,8.2,5.8,12.6c8.9,21.9,17.8,43.9,26.7,65.8C150.9,454.4,151.3,455.9,152,457.6z M109.4,399.5
		c-3.3,8.7-6.3,16.5-9.3,24.5c6.5,0,12.4,0,18.6,0C115.7,415.9,112.7,408.1,109.4,399.5z"/>
	<path class="st4" d="M258.6,410.2c-1.1-4.6,1.2-5,4.3-4.8c3.6,0.2,7.2,0.1,10.7,0c2-0.1,2.8,0.5,2.8,2.6c-0.1,15.6-0.1,31.3,0,46.9
		c0,2.1-0.6,2.8-2.7,2.7c-3-0.2-6.1,0-9.2,0c-5.6,0-5.6,0-6.2-5.6c-6.5,6-13.9,8.3-22.4,6.7c-5.7-1-10.3-4.1-14-8.5
		c-8.9-10.9-8.7-27.3,0.4-37.7C229.4,404.6,244.1,399.8,258.6,410.2z M246.9,419.4c-6.9,0-12,5-12.1,11.9
		c-0.1,7.2,4.7,12.4,11.5,12.5c7.3,0.1,12.6-5.1,12.6-12.4C258.8,424.6,253.7,419.5,246.9,419.4z"/>
	<path class="st4" d="M497.6,404.2c11,0.1,20.4,3.9,26.6,13.1c9.2,13.6,3.3,32.2-11.9,38.9c-12.8,5.6-29.8,3.1-38.3-5.5
		c-14.5-14.8-8.3-38.3,11.9-44.8C489.6,404.7,493.5,404,497.6,404.2z M497.2,419.4c-6.8,0.1-12,5.3-12.1,12.1
		c0,6.9,5.2,12.4,11.8,12.4c7.3-0.1,12.7-5.4,12.5-12.5C509.3,424.5,504,419.4,497.2,419.4z"/>
	<path class="st4" d="M306.6,411.1c5.7-4.7,11.1-7.7,17.9-6.9c12.4,1.4,20.8,8.2,20.4,21.2c-0.3,9.5-0.1,19.1,0,28.6
		c0,2.6-0.4,3.8-3.4,3.6c-4-0.3-8-0.2-11.9,0c-2.3,0.1-2.9-0.7-2.9-2.9c0.1-8.4,0.1-16.7,0-25.1c0-7.2-3.6-11.6-9.2-11.6
		c-6-0.1-10.8,5.2-10.8,11.9c0,8.2-0.1,16.4,0,24.7c0,2.4-0.6,3.3-3.1,3.1c-4-0.2-8-0.2-11.9,0c-2.6,0.2-3-0.9-3-3.2
		c0.1-15.2,0.1-30.5,0-45.7c0-2.5,0.6-3.6,3.3-3.4c3,0.2,6.1,0.2,9.1,0C304.9,405.1,307.9,405.2,306.6,411.1z"/>
	<path class="st4" d="M350.3,457.6c8.7-12.9,17-25.3,25.7-38.3c-6.4,0-12.2-0.1-17.9,0.1c-2.6,0.1-3.7-0.5-3.7-3.4
		c0-10.5-0.1-10.5,10.5-10.5c13.5,0,27,0,40.6,0c0.2,1.9-1.1,2.8-1.8,3.9c-7,10.5-14,20.9-21,31.4c-0.6,0.8-1.8,1.6-1.2,2.7
		c0.6,1.1,1.9,0.5,2.9,0.5c5.4,0.1,10.9,0.2,16.3,0c2.6-0.1,3.7,0.5,3.7,3.4c0,10.3,0.1,10.3-10.2,10.3c-13.1,0-26.3,0-39.4,0
		C353.5,457.6,352.2,457.6,350.3,457.6z"/>
	<path class="st4" d="M407.3,457.6c8.7-13,17-25.3,25.7-38.3c-6.7,0-12.6-0.1-18.5,0c-2.2,0.1-2.9-0.6-3-2.9c-0.3-11-0.4-11,10.7-11
		c13.4,0,26.7,0,41,0c-8.7,13-17,25.5-25.8,38.5c7.3,0,13.7,0.1,20.2-0.1c2.6-0.1,3.9,0.4,3.6,3.4c-0.3,3.3,1,7.5-0.6,9.6
		c-1.8,2.2-6.2,0.7-9.5,0.7C436.8,457.7,422.5,457.6,407.3,457.6z"/>
	<path class="st4" d="M147.3,405.4c6.9,0,13.2,0,19.5,0c2,0,2.3,1.4,2.9,2.7c3.7,8.3,7.5,16.6,11.5,25.7c3-6.7,6.3-12.6,8.3-19
		c2.4-7.5,6.4-11.1,14.6-9.5c3.3,0.6,6.9,0.1,10.2,0.1c0.8,1.4-0.2,2.2-0.7,3c-8.2,15.4-16.6,30.8-24.7,46.2
		c-1.3,2.4-2.8,2.7-5.2,3.1c-6.6,0.9-10-1.7-12.9-7.6c-6.7-13.7-14.2-26.9-21.4-40.3C148.9,408.5,148.2,407.2,147.3,405.4z"/>
</g>
</svg>
